<svg width="85" height="104" viewBox="0 0 85 104" fill="none" xmlns="http://www.w3.org/2000/svg">
<path d="M84.5429 66.5083C84.5429 86.7647 66.8461 103.186 45.0161 103.186C23.1861 103.186 5.48932 86.7647 5.48932 66.5083C5.48932 46.252 23.1861 0 45.0161 0C66.8461 0 84.5429 46.252 84.5429 66.5083Z" fill="#010101" fill-opacity="0.2"/>
<path d="M79.55 66.5083C79.55 86.7647 61.8533 103.186 40.0232 103.186C18.1932 103.186 0.49646 86.7647 0.49646 66.5083C0.49646 46.252 18.1932 0 40.0232 0C61.8533 0 79.55 46.252 79.55 66.5083Z" fill="white"/>
<path fill-rule="evenodd" clip-rule="evenodd" d="M40.0232 101.23C60.689 101.23 77.4419 85.6844 77.4419 66.5083C77.4419 56.7494 73.1295 40.4107 66.0657 26.4914C62.5422 19.5484 58.3962 13.3336 53.8752 8.88551C49.3294 4.41304 44.6475 1.95613 40.0232 1.95613C35.399 1.95613 30.7171 4.41304 26.1713 8.88551C21.6503 13.3336 17.5042 19.5484 13.9808 26.4914C6.91703 40.4107 2.60456 56.7494 2.60456 66.5083C2.60456 85.6844 19.3575 101.23 40.0232 101.23ZM40.0232 103.186C61.8533 103.186 79.55 86.7647 79.55 66.5083C79.55 46.252 61.8533 0 40.0232 0C18.1932 0 0.49646 46.252 0.49646 66.5083C0.49646 86.7647 18.1932 103.186 40.0232 103.186Z" fill="black"/>
<path d="M66.2357 68.6518C66.2357 82.2094 54.5 93.2 40.0232 93.2C25.5465 93.2 13.8107 82.2094 13.8107 68.6518C13.8107 55.0942 25.5465 44.1036 40.0232 44.1036C54.5 44.1036 66.2357 55.0942 66.2357 68.6518Z" fill="#FFC700"/>
<path fill-rule="evenodd" clip-rule="evenodd" d="M40.0232 91.9726C53.7762 91.9726 64.9251 81.5315 64.9251 68.6518C64.9251 55.7721 53.7762 45.331 40.0232 45.331C26.2703 45.331 15.1214 55.7721 15.1214 68.6518C15.1214 81.5315 26.2703 91.9726 40.0232 91.9726ZM40.0232 93.2C54.5 93.2 66.2357 82.2094 66.2357 68.6518C66.2357 55.0942 54.5 44.1036 40.0232 44.1036C25.5465 44.1036 13.8107 55.0942 13.8107 68.6518C13.8107 82.2094 25.5465 93.2 40.0232 93.2Z" fill="black"/>
<path d="M32.95 91.6565C40.7265 88.1272 47.2949 80.9131 50.1885 71.5891C53.2574 61.7001 51.4581 51.8051 46.2093 44.9357C46.2841 44.9548 46.3588 44.9743 46.4336 44.994C60.3274 48.6665 68.3647 62.0382 64.3854 74.8606C60.4945 87.3982 46.5556 94.7684 32.95 91.6565Z" fill="black" fill-opacity="0.1"/>
<path d="M16.3822 69.0679C17.1198 62.856 20.4578 56.6693 26.1639 52.0846C29.4972 49.4064 33.257 47.5816 37.1108 46.6C32.512 46.8087 27.9194 48.4219 24.0952 51.4945C18.4646 56.0185 15.8157 62.6489 16.3822 69.0679Z" fill="white"/>
<path d="M22.1066 93.4051C43.8361 93.4051 61.4514 76.9841 61.4514 56.7277C61.4514 42.309 52.5262 14.719 39.545 0.0142125C39.7646 0.00476281 39.9847 0 40.2052 0C61.9348 0 79.5501 46.252 79.5501 66.5083C79.5501 86.7647 61.9348 103.186 40.2052 103.186C29.219 103.186 19.2845 98.9882 12.1465 92.2197C15.3276 92.9933 18.6655 93.4051 22.1066 93.4051Z" fill="black" fill-opacity="0.1"/>
<path d="M84.5429 66.5083C84.5429 86.7647 66.8461 103.186 45.0161 103.186C23.1861 103.186 5.48932 86.7647 5.48932 66.5083C5.48932 46.252 23.1861 0 45.0161 0C66.8461 0 84.5429 46.252 84.5429 66.5083Z" fill="#010101" fill-opacity="0.2"/>
<path d="M79.55 66.5083C79.55 86.7647 61.8533 103.186 40.0232 103.186C18.1932 103.186 0.49646 86.7647 0.49646 66.5083C0.49646 46.252 18.1932 0 40.0232 0C61.8533 0 79.55 46.252 79.55 66.5083Z" fill="white"/>
<path fill-rule="evenodd" clip-rule="evenodd" d="M40.0232 101.23C60.689 101.23 77.4419 85.6844 77.4419 66.5083C77.4419 56.7494 73.1295 40.4107 66.0657 26.4914C62.5422 19.5484 58.3962 13.3336 53.8752 8.88551C49.3294 4.41304 44.6475 1.95613 40.0232 1.95613C35.399 1.95613 30.7171 4.41304 26.1713 8.88551C21.6503 13.3336 17.5042 19.5484 13.9808 26.4914C6.91703 40.4107 2.60456 56.7494 2.60456 66.5083C2.60456 85.6844 19.3575 101.23 40.0232 101.23ZM40.0232 103.186C61.8533 103.186 79.55 86.7647 79.55 66.5083C79.55 46.252 61.8533 0 40.0232 0C18.1932 0 0.49646 46.252 0.49646 66.5083C0.49646 86.7647 18.1932 103.186 40.0232 103.186Z" fill="black"/>
<path d="M66.2357 68.6518C66.2357 82.2094 54.5 93.2 40.0232 93.2C25.5465 93.2 13.8107 82.2094 13.8107 68.6518C13.8107 55.0942 25.5465 44.1036 40.0232 44.1036C54.5 44.1036 66.2357 55.0942 66.2357 68.6518Z" fill="#F07E35"/>
<path fill-rule="evenodd" clip-rule="evenodd" d="M40.0232 91.9726C53.7762 91.9726 64.9251 81.5315 64.9251 68.6518C64.9251 55.7721 53.7762 45.331 40.0232 45.331C26.2703 45.331 15.1214 55.7721 15.1214 68.6518C15.1214 81.5315 26.2703 91.9726 40.0232 91.9726ZM40.0232 93.2C54.5 93.2 66.2357 82.2094 66.2357 68.6518C66.2357 55.0942 54.5 44.1036 40.0232 44.1036C25.5465 44.1036 13.8107 55.0942 13.8107 68.6518C13.8107 82.2094 25.5465 93.2 40.0232 93.2Z" fill="black"/>
<path d="M32.95 91.6565C40.7265 88.1272 47.2949 80.9131 50.1885 71.5891C53.2574 61.7001 51.4581 51.8051 46.2093 44.9357C46.2841 44.9548 46.3588 44.9743 46.4336 44.994C60.3274 48.6665 68.3647 62.0382 64.3854 74.8606C60.4945 87.3982 46.5556 94.7684 32.95 91.6565Z" fill="black" fill-opacity="0.1"/>
<path d="M16.3822 69.0679C17.1198 62.856 20.4578 56.6693 26.1639 52.0846C29.4972 49.4064 33.257 47.5816 37.1108 46.6C32.512 46.8087 27.9194 48.4219 24.0952 51.4945C18.4646 56.0185 15.8157 62.6489 16.3822 69.0679Z" fill="white"/>
<path d="M22.1066 93.4051C43.8361 93.4051 61.4514 76.9841 61.4514 56.7277C61.4514 42.309 52.5262 14.719 39.545 0.0142125C39.7646 0.00476281 39.9847 0 40.2052 0C61.9348 0 79.5501 46.252 79.5501 66.5083C79.5501 86.7647 61.9348 103.186 40.2052 103.186C29.219 103.186 19.2845 98.9882 12.1465 92.2196C15.3276 92.9933 18.6655 93.4051 22.1066 93.4051Z" fill="black" fill-opacity="0.1"/>
<path d="M31.0781 88.0518C30.7886 87.4388 30.4628 86.8868 30.1066 86.4061C30.0751 86.3656 30.0376 86.3438 29.9991 86.3438C29.9606 86.3438 29.923 86.3656 29.8915 86.4061C29.536 86.887 29.2108 87.439 28.9219 88.0518C28.2776 89.4083 27.9375 90.8383 27.9375 92.1875C27.9375 93.1903 28.1548 94.1521 28.5416 94.8612C28.9284 95.5704 29.453 95.9687 30 95.9687C30.547 95.9687 31.0716 95.5704 31.4584 94.8612C31.8452 94.1521 32.0625 93.1903 32.0625 92.1875C32.0625 90.8383 31.7224 89.4083 31.0781 88.0518ZM31.309 92.5888C31.2604 93.0867 31.1297 93.5453 30.9346 93.9029C30.7395 94.2606 30.4893 94.5 30.2177 94.589C30.2077 94.592 30.1976 94.5935 30.1875 94.5937C30.1405 94.5937 30.0952 94.5613 30.0606 94.5029C30.026 94.4445 30.0046 94.3644 30.0007 94.2785C29.9968 94.1925 30.0107 94.1071 30.0395 94.039C30.0684 93.9709 30.1102 93.9252 30.1566 93.911C30.5449 93.7911 30.8745 93.187 30.9403 92.4737C30.9486 92.3838 30.9761 92.3036 31.0167 92.2508C31.0573 92.198 31.1076 92.177 31.1566 92.1922C31.2057 92.2075 31.2494 92.2579 31.2782 92.3322C31.307 92.4066 31.3185 92.4989 31.3102 92.5888H31.309Z" fill="#F07E35"/>
</svg>
