<svg width="85" height="104" viewBox="0 0 85 104" fill="none" xmlns="http://www.w3.org/2000/svg">
<path d="M84.0464 67.3155C84.0464 87.5718 66.3497 103.993 44.5196 103.993C22.6896 103.993 4.99286 87.5718 4.99286 67.3155C4.99286 47.0591 22.6896 0.807129 44.5196 0.807129C66.3497 0.807129 84.0464 47.0591 84.0464 67.3155Z" fill="#010101" fill-opacity="0.2"/>
<path d="M79.0536 67.3155C79.0536 87.5718 61.3568 103.993 39.5268 103.993C17.6967 103.993 0 87.5718 0 67.3155C0 47.0591 17.6967 0.807129 39.5268 0.807129C61.3568 0.807129 79.0536 47.0591 79.0536 67.3155Z" fill="white"/>
<path fill-rule="evenodd" clip-rule="evenodd" d="M39.5268 102.037C60.1926 102.037 76.9455 86.4915 76.9455 67.3155C76.9455 57.5565 72.633 41.2179 65.5692 27.2985C62.0458 20.3555 57.8998 14.1407 53.3788 9.69264C48.833 5.22017 44.151 2.76326 39.5268 2.76326C34.9026 2.76326 30.2206 5.22017 25.6748 9.69264C21.1538 14.1407 17.0078 20.3555 13.4843 27.2985C6.42057 41.2179 2.1081 57.5565 2.1081 67.3155C2.1081 86.4915 18.861 102.037 39.5268 102.037ZM39.5268 103.993C61.3568 103.993 79.0536 87.5718 79.0536 67.3155C79.0536 47.0591 61.3568 0.807129 39.5268 0.807129C17.6967 0.807129 0 47.0591 0 67.3155C0 87.5718 17.6967 103.993 39.5268 103.993Z" fill="black"/>
<path d="M65.7393 69.4589C65.7393 83.0165 54.0035 94.0071 39.5268 94.0071C25.05 94.0071 13.3143 83.0165 13.3143 69.4589C13.3143 55.9013 25.05 44.9107 39.5268 44.9107C54.0035 44.9107 65.7393 55.9013 65.7393 69.4589Z" fill="#FFC700"/>
<path fill-rule="evenodd" clip-rule="evenodd" d="M39.5268 92.7797C53.2797 92.7797 64.4286 82.3386 64.4286 69.4589C64.4286 56.5792 53.2797 46.1381 39.5268 46.1381C25.7738 46.1381 14.6249 56.5792 14.6249 69.4589C14.6249 82.3386 25.7738 92.7797 39.5268 92.7797ZM39.5268 94.0071C54.0035 94.0071 65.7393 83.0165 65.7393 69.4589C65.7393 55.9013 54.0035 44.9107 39.5268 44.9107C25.05 44.9107 13.3143 55.9013 13.3143 69.4589C13.3143 83.0165 25.05 94.0071 39.5268 94.0071Z" fill="black"/>
<path d="M32.4536 92.4637C40.2301 88.9344 46.7985 81.7202 49.692 72.3962C52.761 62.5073 50.9616 52.6122 45.7128 45.7428C45.7876 45.762 45.8624 45.7814 45.9371 45.8012C59.8309 49.4736 67.8682 62.8453 63.8889 75.6678C59.998 88.2054 46.0592 95.5755 32.4536 92.4637Z" fill="black" fill-opacity="0.1"/>
<path d="M15.8857 69.875C16.6233 63.6632 19.9613 57.4764 25.6674 52.8917C29.0007 50.2135 32.7605 48.3887 36.6143 47.4071C32.0155 47.6158 27.423 49.229 23.5987 52.3017C17.9681 56.8256 15.3193 63.456 15.8857 69.875Z" fill="white"/>
<path d="M21.6101 94.2122C43.3397 94.2122 60.955 77.7912 60.955 57.5348C60.955 43.1161 52.0297 15.5261 39.0485 0.821341C39.2682 0.811892 39.4883 0.807129 39.7088 0.807129C61.4383 0.807129 79.0536 47.0591 79.0536 67.3155C79.0536 87.5718 61.4383 103.993 39.7088 103.993C28.7225 103.993 18.788 99.7953 11.65 93.0268C14.8311 93.8004 18.169 94.2122 21.6101 94.2122Z" fill="black" fill-opacity="0.1"/>
<path d="M84.0464 67.3155C84.0464 87.5718 66.3497 103.993 44.5196 103.993C22.6896 103.993 4.99286 87.5718 4.99286 67.3155C4.99286 47.0591 22.6896 0.807129 44.5196 0.807129C66.3497 0.807129 84.0464 47.0591 84.0464 67.3155Z" fill="#010101" fill-opacity="0.2"/>
<path d="M79.0536 67.3155C79.0536 87.5718 61.3568 103.993 39.5268 103.993C17.6967 103.993 0 87.5718 0 67.3155C0 47.0591 17.6967 0.807129 39.5268 0.807129C61.3568 0.807129 79.0536 47.0591 79.0536 67.3155Z" fill="white"/>
<path fill-rule="evenodd" clip-rule="evenodd" d="M39.5268 102.037C60.1926 102.037 76.9455 86.4915 76.9455 67.3155C76.9455 57.5565 72.633 41.2179 65.5692 27.2985C62.0458 20.3555 57.8998 14.1407 53.3788 9.69264C48.833 5.22017 44.151 2.76326 39.5268 2.76326C34.9026 2.76326 30.2206 5.22017 25.6748 9.69264C21.1538 14.1407 17.0078 20.3555 13.4843 27.2985C6.42057 41.2179 2.1081 57.5565 2.1081 67.3155C2.1081 86.4915 18.861 102.037 39.5268 102.037ZM39.5268 103.993C61.3568 103.993 79.0536 87.5718 79.0536 67.3155C79.0536 47.0591 61.3568 0.807129 39.5268 0.807129C17.6967 0.807129 0 47.0591 0 67.3155C0 87.5718 17.6967 103.993 39.5268 103.993Z" fill="black"/>
<path d="M65.7393 69.4589C65.7393 83.0165 54.0035 94.0071 39.5268 94.0071C25.05 94.0071 13.3143 83.0165 13.3143 69.4589C13.3143 55.9013 25.05 44.9107 39.5268 44.9107C54.0035 44.9107 65.7393 55.9013 65.7393 69.4589Z" fill="#F8C35B"/>
<path fill-rule="evenodd" clip-rule="evenodd" d="M39.5268 92.7797C53.2797 92.7797 64.4286 82.3386 64.4286 69.4589C64.4286 56.5792 53.2797 46.1381 39.5268 46.1381C25.7738 46.1381 14.6249 56.5792 14.6249 69.4589C14.6249 82.3386 25.7738 92.7797 39.5268 92.7797ZM39.5268 94.0071C54.0035 94.0071 65.7393 83.0165 65.7393 69.4589C65.7393 55.9013 54.0035 44.9107 39.5268 44.9107C25.05 44.9107 13.3143 55.9013 13.3143 69.4589C13.3143 83.0165 25.05 94.0071 39.5268 94.0071Z" fill="black"/>
<path d="M32.4536 92.4637C40.2301 88.9344 46.7985 81.7202 49.692 72.3962C52.761 62.5073 50.9616 52.6122 45.7128 45.7428C45.7876 45.762 45.8624 45.7814 45.9371 45.8012C59.8309 49.4736 67.8682 62.8453 63.8889 75.6678C59.998 88.2054 46.0592 95.5755 32.4536 92.4637Z" fill="black" fill-opacity="0.1"/>
<path d="M15.8857 69.875C16.6233 63.6632 19.9613 57.4764 25.6674 52.8917C29.0007 50.2135 32.7605 48.3887 36.6143 47.4071C32.0155 47.6158 27.423 49.229 23.5987 52.3017C17.9681 56.8256 15.3193 63.456 15.8857 69.875Z" fill="white"/>
<path d="M21.6101 94.2122C43.3397 94.2122 60.955 77.7912 60.955 57.5348C60.955 43.1161 52.0297 15.5261 39.0485 0.821341C39.2682 0.811892 39.4883 0.807129 39.7088 0.807129C61.4383 0.807129 79.0536 47.0591 79.0536 67.3155C79.0536 87.5718 61.4383 103.993 39.7088 103.993C28.7225 103.993 18.788 99.7953 11.65 93.0268C14.8311 93.8004 18.169 94.2122 21.6101 94.2122Z" fill="black" fill-opacity="0.1"/>
</svg>
