<svg width="85" height="104" viewBox="0 0 85 104" fill="none" xmlns="http://www.w3.org/2000/svg">
<path d="M84.0464 66.9476C84.0464 87.204 66.3497 103.625 44.5196 103.625C22.6896 103.625 4.99286 87.204 4.99286 66.9476C4.99286 46.6912 22.6896 0.43927 44.5196 0.43927C66.3497 0.43927 84.0464 46.6912 84.0464 66.9476Z" fill="#010101" fill-opacity="0.2"/>
<path d="M79.0536 66.9476C79.0536 87.204 61.3568 103.625 39.5268 103.625C17.6967 103.625 0 87.204 0 66.9476C0 46.6912 17.6967 0.43927 39.5268 0.43927C61.3568 0.43927 79.0536 46.6912 79.0536 66.9476Z" fill="white"/>
<path fill-rule="evenodd" clip-rule="evenodd" d="M39.5268 101.669C60.1926 101.669 76.9455 86.1236 76.9455 66.9476C76.9455 57.1886 72.633 40.85 65.5692 26.9307C62.0458 19.9876 57.8998 13.7728 53.3788 9.32478C48.833 4.85231 44.151 2.3954 39.5268 2.3954C34.9026 2.3954 30.2206 4.85231 25.6748 9.32478C21.1538 13.7728 17.0078 19.9876 13.4843 26.9307C6.42057 40.85 2.1081 57.1886 2.1081 66.9476C2.1081 86.1236 18.861 101.669 39.5268 101.669ZM39.5268 103.625C61.3568 103.625 79.0536 87.204 79.0536 66.9476C79.0536 46.6912 61.3568 0.43927 39.5268 0.43927C17.6967 0.43927 0 46.6912 0 66.9476C0 87.204 17.6967 103.625 39.5268 103.625Z" fill="black"/>
<path d="M65.7393 69.0911C65.7393 82.6487 54.0035 93.6393 39.5268 93.6393C25.05 93.6393 13.3143 82.6487 13.3143 69.0911C13.3143 55.5335 25.05 44.5428 39.5268 44.5428C54.0035 44.5428 65.7393 55.5335 65.7393 69.0911Z" fill="#FFC700"/>
<path fill-rule="evenodd" clip-rule="evenodd" d="M39.5268 92.4119C53.2797 92.4119 64.4286 81.9708 64.4286 69.0911C64.4286 56.2113 53.2797 45.7703 39.5268 45.7703C25.7738 45.7703 14.6249 56.2113 14.6249 69.0911C14.6249 81.9708 25.7738 92.4119 39.5268 92.4119ZM39.5268 93.6393C54.0035 93.6393 65.7393 82.6487 65.7393 69.0911C65.7393 55.5335 54.0035 44.5428 39.5268 44.5428C25.05 44.5428 13.3143 55.5335 13.3143 69.0911C13.3143 82.6487 25.05 93.6393 39.5268 93.6393Z" fill="black"/>
<path d="M32.4536 92.0958C40.2301 88.5665 46.7985 81.3524 49.692 72.0284C52.761 62.1394 50.9616 52.2444 45.7128 45.375C45.7876 45.3941 45.8624 45.4135 45.9371 45.4333C59.8309 49.1057 67.8682 62.4775 63.8889 75.2999C59.998 87.8375 46.0592 95.2077 32.4536 92.0958Z" fill="black" fill-opacity="0.1"/>
<path d="M15.8857 69.5071C16.6233 63.2953 19.9613 57.1086 25.6674 52.5239C29.0007 49.8457 32.7605 48.0208 36.6143 47.0393C32.0155 47.248 27.423 48.8611 23.5987 51.9338C17.9681 56.4578 15.3193 63.0881 15.8857 69.5071Z" fill="white"/>
<path d="M21.6101 93.8444C43.3397 93.8444 60.955 77.4233 60.955 57.167C60.955 42.7483 52.0297 15.1583 39.0485 0.453483C39.2682 0.444033 39.4883 0.43927 39.7088 0.43927C61.4383 0.43927 79.0536 46.6912 79.0536 66.9476C79.0536 87.204 61.4383 103.625 39.7088 103.625C28.7225 103.625 18.788 99.4274 11.65 92.6589C14.8311 93.4325 18.169 93.8444 21.6101 93.8444Z" fill="black" fill-opacity="0.1"/>
<path d="M84.0464 66.9476C84.0464 87.204 66.3497 103.625 44.5196 103.625C22.6896 103.625 4.99286 87.204 4.99286 66.9476C4.99286 46.6912 22.6896 0.43927 44.5196 0.43927C66.3497 0.43927 84.0464 46.6912 84.0464 66.9476Z" fill="#010101" fill-opacity="0.2"/>
<path d="M79.0536 66.9476C79.0536 87.204 61.3568 103.625 39.5268 103.625C17.6967 103.625 0 87.204 0 66.9476C0 46.6912 17.6967 0.43927 39.5268 0.43927C61.3568 0.43927 79.0536 46.6912 79.0536 66.9476Z" fill="white"/>
<path fill-rule="evenodd" clip-rule="evenodd" d="M39.5268 101.669C60.1926 101.669 76.9455 86.1236 76.9455 66.9476C76.9455 57.1886 72.633 40.85 65.5692 26.9307C62.0458 19.9876 57.8998 13.7728 53.3788 9.32478C48.833 4.85231 44.151 2.3954 39.5268 2.3954C34.9026 2.3954 30.2206 4.85231 25.6748 9.32478C21.1538 13.7728 17.0078 19.9876 13.4843 26.9307C6.42057 40.85 2.1081 57.1886 2.1081 66.9476C2.1081 86.1236 18.861 101.669 39.5268 101.669ZM39.5268 103.625C61.3568 103.625 79.0536 87.204 79.0536 66.9476C79.0536 46.6912 61.3568 0.43927 39.5268 0.43927C17.6967 0.43927 0 46.6912 0 66.9476C0 87.204 17.6967 103.625 39.5268 103.625Z" fill="black"/>
<path d="M65.7393 69.0911C65.7393 82.6487 54.0035 93.6393 39.5268 93.6393C25.05 93.6393 13.3143 82.6487 13.3143 69.0911C13.3143 55.5335 25.05 44.5428 39.5268 44.5428C54.0035 44.5428 65.7393 55.5335 65.7393 69.0911Z" fill="#F8E388"/>
<path fill-rule="evenodd" clip-rule="evenodd" d="M39.5268 92.4119C53.2797 92.4119 64.4286 81.9708 64.4286 69.0911C64.4286 56.2113 53.2797 45.7703 39.5268 45.7703C25.7738 45.7703 14.6249 56.2113 14.6249 69.0911C14.6249 81.9708 25.7738 92.4119 39.5268 92.4119ZM39.5268 93.6393C54.0035 93.6393 65.7393 82.6487 65.7393 69.0911C65.7393 55.5335 54.0035 44.5428 39.5268 44.5428C25.05 44.5428 13.3143 55.5335 13.3143 69.0911C13.3143 82.6487 25.05 93.6393 39.5268 93.6393Z" fill="black"/>
<path d="M32.4536 92.0958C40.2301 88.5665 46.7985 81.3524 49.692 72.0284C52.761 62.1394 50.9616 52.2444 45.7128 45.375C45.7876 45.3941 45.8624 45.4135 45.9371 45.4333C59.8309 49.1057 67.8682 62.4775 63.8889 75.2999C59.998 87.8375 46.0592 95.2077 32.4536 92.0958Z" fill="black" fill-opacity="0.1"/>
<path d="M15.8857 69.5071C16.6233 63.2953 19.9613 57.1086 25.6674 52.5239C29.0007 49.8457 32.7605 48.0208 36.6143 47.0393C32.0155 47.248 27.423 48.8611 23.5987 51.9338C17.9681 56.4578 15.3193 63.0881 15.8857 69.5071Z" fill="white"/>
<path d="M21.6101 93.8444C43.3397 93.8444 60.955 77.4233 60.955 57.167C60.955 42.7483 52.0297 15.1583 39.0485 0.453483C39.2682 0.444033 39.4883 0.43927 39.7088 0.43927C61.4383 0.43927 79.0536 46.6912 79.0536 66.9476C79.0536 87.204 61.4383 103.625 39.7088 103.625C28.7225 103.625 18.788 99.4274 11.65 92.6589C14.8311 93.4325 18.169 93.8444 21.6101 93.8444Z" fill="black" fill-opacity="0.1"/>
</svg>
