<svg width="36" height="37" viewBox="0 0 36 37" fill="none" xmlns="http://www.w3.org/2000/svg">
<path d="M17.981 36.3444C27.9118 36.3444 35.9619 28.2087 35.9619 18.1722C35.9619 8.13569 27.9118 0 17.981 0C8.05007 0 0 8.13569 0 18.1722C0 28.2087 8.05007 36.3444 17.981 36.3444Z" fill="white"/>
<path d="M19 14.4C19 13.2684 19 12.7032 19.3516 12.3516C19.7032 12 20.2684 12 21.4 12C22.5316 12 23.0968 12 23.4484 12.3516C23.8 12.7032 23.8 13.2684 23.8 14.4V21.6C23.8 22.7316 23.8 23.2968 23.4484 23.6484C23.0968 24 22.5316 24 21.4 24C20.2684 24 19.7032 24 19.3516 23.6484C19 23.2968 19 22.7316 19 21.6V14.4ZM26.2 14.4C26.2 13.2684 26.2 12.7032 26.5516 12.3516C26.9032 12 27.4684 12 28.6 12C29.7316 12 30.2968 12 30.6484 12.3516C31 12.7032 31 13.2684 31 14.4V21.6C31 22.7316 31 23.2968 30.6484 23.6484C30.2968 24 29.7316 24 28.6 24C27.4684 24 26.9032 24 26.5516 23.6484C26.2 23.2968 26.2 22.7316 26.2 21.6V14.4Z" fill="#FFC700"/>
<path d="M15.9955 16.412C16.2989 16.5652 16.5526 16.794 16.7296 17.0738C16.9065 17.3535 17 17.6738 17 18.0002C17 18.3266 16.9065 18.6468 16.7296 18.9266C16.5526 19.2063 16.2989 19.4351 15.9955 19.5884L7.90346 23.7686C6.60047 24.4418 5 23.5658 5 22.181V13.82C5 12.434 6.60047 11.5586 7.90346 12.2312L15.9955 16.412Z" fill="#FFC700"/>
</svg>
