<svg width="36" height="37" viewBox="0 0 36 37" fill="none" xmlns="http://www.w3.org/2000/svg">
<path d="M35.9619 18.1722C35.9619 20.5586 35.4968 22.9216 34.5932 25.1264C33.6896 27.3311 32.3651 29.3344 30.6954 31.0219C29.0257 32.7093 27.0435 34.0479 24.862 34.9611C22.6804 35.8743 20.3422 36.3444 17.981 36.3444C15.6197 36.3444 13.2815 35.8743 11.0999 34.9611C8.91839 34.0479 6.93618 32.7093 5.2665 31.0219C3.59681 29.3344 2.27235 27.3311 1.36872 25.1264C0.465091 22.9216 -3.5186e-08 20.5586 0 18.1722C7.10613e-08 13.3526 1.89442 8.73046 5.2665 5.32251C8.63858 1.91456 13.2121 0 17.981 0C22.7498 0 27.3233 1.91456 30.6954 5.32251C34.0675 8.73046 35.9619 13.3526 35.9619 18.1722Z" fill="white"/>
<path d="M11.7886 14.9033C11.7886 14.3729 11.9993 13.8642 12.3744 13.4891C12.7494 13.114 13.2581 12.9033 13.7886 12.9033H21.7886C22.319 12.9033 22.8277 13.114 23.2028 13.4891C23.5779 13.8642 23.7886 14.3729 23.7886 14.9033V22.9033C23.7886 23.4338 23.5779 23.9425 23.2028 24.3175C22.8277 24.6926 22.319 24.9033 21.7886 24.9033H13.7886C13.2581 24.9033 12.7494 24.6926 12.3744 24.3175C11.9993 23.9425 11.7886 23.4338 11.7886 22.9033V14.9033Z" fill="#FFC700"/>
</svg>
